<svg xmlns="http://www.w3.org/2000/svg" width="17.677" height="21" viewBox="0 0 17.677 21">
  <path id="copy_4_" data-name="copy (4)" d="M11.115,21H3.281A3.285,3.285,0,0,1,0,17.718V6.6A3.285,3.285,0,0,1,3.281,3.322h7.834A3.285,3.285,0,0,1,14.4,6.6V17.718A3.285,3.285,0,0,1,11.115,21ZM3.281,4.963A1.643,1.643,0,0,0,1.641,6.6V17.718a1.643,1.643,0,0,0,1.641,1.641h7.834a1.643,1.643,0,0,0,1.641-1.641V6.6a1.643,1.643,0,0,0-1.641-1.641Zm14.4,10.7V3.281A3.285,3.285,0,0,0,14.4,0H5.291a.82.82,0,0,0,0,1.641H14.4a1.643,1.643,0,0,1,1.641,1.641V15.668a.82.82,0,1,0,1.641,0Zm0,0" transform="translate(0 0)"/>
</svg>
