<svg xmlns="http://www.w3.org/2000/svg" width="22.255" height="20.863" viewBox="0 0 22.255 20.863">
  <g id="excel_1_" data-name="excel (1)" transform="translate(0 -16.01)">
    <g id="Group_417" data-name="Group 417" transform="translate(0 16.01)">
      <g id="Group_416" data-name="Group 416" transform="translate(0 0)">
        <path id="Path_9727" data-name="Path 9727" d="M12.266,16.169a.7.7,0,0,0-.572-.147L.567,18.108A.693.693,0,0,0,0,18.791v15.3a.7.7,0,0,0,.567.683L11.695,36.86a.665.665,0,0,0,.128.013.7.7,0,0,0,.7-.7V16.7A.694.694,0,0,0,12.266,16.169Zm-1.139,19.17L1.391,33.514V19.368l9.736-1.825Z" transform="translate(0 -16.01)" fill="#62a05c"/>
      </g>
    </g>
    <g id="Group_419" data-name="Group 419" transform="translate(11.127 18.791)">
      <g id="Group_418" data-name="Group 418" transform="translate(0 0)">
        <path id="Path_9728" data-name="Path 9728" d="M266.432,79.99H256.7a.7.7,0,1,0,0,1.391h9.041V93.9H256.7a.7.7,0,1,0,0,1.391h9.736a.7.7,0,0,0,.7-.7V80.685A.7.7,0,0,0,266.432,79.99Z" transform="translate(-256 -79.99)" fill="#62a05c"/>
      </g>
    </g>
    <g id="Group_421" data-name="Group 421" transform="translate(11.127 21.573)">
      <g id="Group_420" data-name="Group 420" transform="translate(0 0)">
        <path id="Path_9729" data-name="Path 9729" d="M259.477,143.99H256.7a.7.7,0,1,0,0,1.391h2.782a.7.7,0,1,0,0-1.391Z" transform="translate(-256 -143.99)" fill="#62a05c"/>
      </g>
    </g>
    <g id="Group_423" data-name="Group 423" transform="translate(11.127 24.354)">
      <g id="Group_422" data-name="Group 422" transform="translate(0 0)">
        <path id="Path_9730" data-name="Path 9730" d="M259.477,207.99H256.7a.7.7,0,1,0,0,1.391h2.782a.7.7,0,1,0,0-1.391Z" transform="translate(-256 -207.99)" fill="#62a05c"/>
      </g>
    </g>
    <g id="Group_425" data-name="Group 425" transform="translate(11.127 27.136)">
      <g id="Group_424" data-name="Group 424" transform="translate(0 0)">
        <path id="Path_9731" data-name="Path 9731" d="M259.477,271.99H256.7a.7.7,0,1,0,0,1.391h2.782a.7.7,0,1,0,0-1.391Z" transform="translate(-256 -271.99)" fill="#62a05c"/>
      </g>
    </g>
    <g id="Group_427" data-name="Group 427" transform="translate(11.127 29.918)">
      <g id="Group_426" data-name="Group 426" transform="translate(0 0)">
        <path id="Path_9732" data-name="Path 9732" d="M259.477,335.99H256.7a.7.7,0,1,0,0,1.391h2.782a.7.7,0,1,0,0-1.391Z" transform="translate(-256 -335.99)" fill="#62a05c"/>
      </g>
    </g>
    <g id="Group_429" data-name="Group 429" transform="translate(16.691 21.573)">
      <g id="Group_428" data-name="Group 428" transform="translate(0 0)">
        <path id="Path_9733" data-name="Path 9733" d="M386.086,143.99H384.7a.7.7,0,1,0,0,1.391h1.391a.7.7,0,0,0,0-1.391Z" transform="translate(-384 -143.99)" fill="#62a05c"/>
      </g>
    </g>
    <g id="Group_431" data-name="Group 431" transform="translate(16.691 24.354)">
      <g id="Group_430" data-name="Group 430" transform="translate(0 0)">
        <path id="Path_9734" data-name="Path 9734" d="M386.086,207.99H384.7a.7.7,0,1,0,0,1.391h1.391a.7.7,0,0,0,0-1.391Z" transform="translate(-384 -207.99)" fill="#62a05c"/>
      </g>
    </g>
    <g id="Group_433" data-name="Group 433" transform="translate(16.691 27.136)">
      <g id="Group_432" data-name="Group 432" transform="translate(0 0)">
        <path id="Path_9735" data-name="Path 9735" d="M386.086,271.99H384.7a.7.7,0,1,0,0,1.391h1.391a.7.7,0,0,0,0-1.391Z" transform="translate(-384 -271.99)" fill="#62a05c"/>
      </g>
    </g>
    <g id="Group_435" data-name="Group 435" transform="translate(16.691 29.918)">
      <g id="Group_434" data-name="Group 434" transform="translate(0 0)">
        <path id="Path_9736" data-name="Path 9736" d="M386.086,335.99H384.7a.7.7,0,1,0,0,1.391h1.391a.7.7,0,0,0,0-1.391Z" transform="translate(-384 -335.99)" fill="#62a05c"/>
      </g>
    </g>
    <g id="Group_437" data-name="Group 437" transform="translate(3.477 22.963)">
      <g id="Group_436" data-name="Group 436" transform="translate(0 0)">
        <path id="Path_9737" data-name="Path 9737" d="M86.092,181.785l-4.868-5.564a.7.7,0,0,0-1.047.915l4.868,5.564a.7.7,0,0,0,1.047-.915Z" transform="translate(-80.004 -175.984)" fill="#62a05c"/>
      </g>
    </g>
    <g id="Group_439" data-name="Group 439" transform="translate(3.477 22.268)">
      <g id="Group_438" data-name="Group 438" transform="translate(0 0)">
        <path id="Path_9738" data-name="Path 9738" d="M85.99,160.139a.7.7,0,0,0-.976.121l-4.868,6.259a.7.7,0,0,0,1.1.855l4.868-6.259A.7.7,0,0,0,85.99,160.139Z" transform="translate(-79.999 -159.992)" fill="#62a05c"/>
      </g>
    </g>
  </g>
</svg>
