<svg xmlns="http://www.w3.org/2000/svg" width="20.342" height="19.215" viewBox="0 0 20.342 19.215">
  <path id="filter_4_" data-name="filter (4)" d="M13.292,27.215a.754.754,0,0,1-.754-.754V19.216L5.553,11.534A2.114,2.114,0,0,1,7.116,8H23.235A2.114,2.114,0,0,1,24.8,11.534l-6.985,7.682v4.231a.754.754,0,0,1-.283.588L13.763,27.05A.754.754,0,0,1,13.292,27.215ZM7.116,9.507a.607.607,0,0,0-.448,1.014l7.181,7.912a.754.754,0,0,1,.2.494v5.968l2.261-1.824V18.926a.754.754,0,0,1,.2-.509l7.181-7.912a.607.607,0,0,0-.448-1Z" transform="translate(-5.004 -8)" fill="#0065a1"/>
</svg>
