<svg xmlns="http://www.w3.org/2000/svg" width="176" height="42" viewBox="0 0 176 42">
  <g id="Group_109" data-name="Group 109" transform="translate(-226.631 -114.569)">
    <text id="Voucher_Management" data-name="Voucher 
Management" transform="translate(299.63 130.569)" fill="#fff" font-size="16" font-family="NestleTextTF-Bold, Nestle Text TF" font-weight="700"><tspan x="0" y="0">Voucher </tspan><tspan x="0" y="21">Management</tspan></text>
    <g id="Group_39839" data-name="Group 39839" transform="translate(226.631 114.903)">
      <g id="Group_98" data-name="Group 98" transform="translate(0 0)">
        <g id="Group_97" data-name="Group 97" transform="matrix(0.995, -0.105, 0.105, 0.995, 0.044, 6.686)">
          <g id="Subtraction_1" data-name="Subtraction 1" transform="translate(0 0)" fill="#fff">
            <path d="M 46.65550994873047 33.51610946655273 L 3.999624252319336 33.51480484008789 C 2.207764148712158 33.51480484008789 0.7500041723251343 32.05703735351562 0.7500041723251343 30.26519584655762 L 0.7500041723251343 24.54433631896973 C 3.395191431045532 23.76770401000977 5.318404197692871 20.71658134460449 5.318404197692871 17.13239669799805 C 5.318404197692871 13.54820156097412 3.395191431045532 10.4970703125 0.7500041723251343 9.720443725585938 L 0.7500041723251343 3.999596118927002 C 0.7500041723251343 2.207756280899048 2.207764148712158 0.7499961853027344 3.999604225158691 0.7499961853027344 L 46.65481948852539 0.7499961853027344 C 46.68124771118164 1.116378784179688 46.79058074951172 1.474969267845154 46.97976303100586 1.802576184272766 C 47.30876541137695 2.372346162796021 47.8398551940918 2.779906272888184 48.47519302368164 2.950136184692383 C 48.68454360961914 3.005996227264404 48.89917373657227 3.03420615196228 49.11389541625977 3.03420615196228 C 50.22640228271484 3.03420615196228 51.20454406738281 2.283406257629395 51.4925537109375 1.208396196365356 C 51.53310012817383 1.057072162628174 51.55902099609375 0.9037438631057739 51.57038497924805 0.7499961853027344 L 59.96160507202148 0.7499961853027344 C 61.75344467163086 0.7499961853027344 63.21120452880859 2.207756280899048 63.21120452880859 3.999596118927002 L 63.21120452880859 9.486001014709473 C 61.89727783203125 9.716043472290039 60.69399261474609 10.50258731842041 59.76616287231445 11.75362586975098 C 58.71326446533203 13.17334651947021 58.13340377807617 15.04328632354736 58.13340377807617 17.01899528503418 C 58.13340377807617 18.99468612670898 58.71327590942383 20.86448669433594 59.76620483398438 22.28396606445312 C 60.69399642944336 23.53473472595215 61.89726638793945 24.32110786437988 63.21120452880859 24.55109786987305 L 63.21120452880859 30.26519584655762 C 63.21120452880859 32.05703735351562 61.75344467163086 33.51480484008789 59.96160507202148 33.51480484008789 L 51.57014083862305 33.51480484008789 C 51.49518203735352 32.49878692626953 50.78919982910156 31.59292793273926 49.75083541870117 31.31466674804688 C 49.54177474975586 31.25867652893066 49.32683563232422 31.23030662536621 49.11186599731445 31.23030662536621 C 47.99932479858398 31.23030662536621 47.02127456665039 31.98128700256348 46.73341369628906 33.05654525756836 C 46.69277191162109 33.20821762084961 46.66682434082031 33.36198806762695 46.65550994873047 33.51610946655273 Z" stroke="none"/>
            <path d="M 46.03637313842773 32.76609039306641 C 46.44342803955078 31.41515159606934 47.69388961791992 30.48030662536621 49.11186599731445 30.48030662536621 C 49.39231491088867 30.48030662536621 49.67253494262695 30.51726531982422 49.94497299194336 30.5902271270752 C 51.05654525756836 30.88810348510742 51.87612915039062 31.73728179931641 52.18840789794922 32.76480484008789 L 59.96160507202148 32.76480484008789 C 61.33988571166992 32.76480484008789 62.46120452880859 31.64348602294922 62.46120452880859 30.26519584655762 L 62.46120452880859 25.14456367492676 C 61.20279693603516 24.7707462310791 60.06390380859375 23.94417953491211 59.16383361816406 22.73078536987305 C 58.01570510864258 21.1829662322998 57.38340377807617 19.15448570251465 57.38340377807617 17.01899528503418 C 57.38340377807617 14.88351631164551 58.01567459106445 12.8549165725708 59.16376495361328 11.30684661865234 C 60.06385803222656 10.09320640563965 61.20278930664062 9.266468048095703 62.46120452880859 8.892568588256836 L 62.46120452880859 3.999596118927002 C 62.46120452880859 2.621316194534302 61.33988571166992 1.499996185302734 59.96160507202148 1.499996185302734 L 52.18922805786133 1.499996185302734 C 51.78166961669922 2.850063800811768 50.53141403198242 3.78420615196228 49.11389541625977 3.78420615196228 C 48.83393478393555 3.78420615196228 48.55426406860352 3.747466087341309 48.28107452392578 3.674586296081543 C 47.45225524902344 3.452506065368652 46.75943374633789 2.920856237411499 46.33028411865234 2.17763614654541 C 46.20509338378906 1.960850119590759 46.10670852661133 1.733652114868164 46.03564834594727 1.499996185302734 L 3.999604225158691 1.499996185302734 C 2.621324062347412 1.499996185302734 1.500004172325134 2.621316194534302 1.500004172325134 3.999596118927002 L 1.500004172325134 9.190699577331543 C 4.17706298828125 10.28858089447021 6.068404197692871 13.45826148986816 6.068404197692871 17.13239669799805 C 6.068404197692871 20.80652236938477 4.177067279815674 23.9761962890625 1.500004172325134 25.07408142089844 L 1.500004172325134 30.26519584655762 C 1.500004172325134 31.64348602294922 2.621324062347412 32.76480484008789 3.999654054641724 32.76480484008789 L 46.03637313842773 32.76609039306641 M 47.49802398681641 34.26613616943359 L 3.999604225158691 34.26480484008789 C 1.794214129447937 34.26480484008789 4.171753062109929e-06 32.47058486938477 4.171753062109929e-06 30.26519584655762 L 4.171753062109929e-06 23.94307708740234 C 2.604784250259399 23.55886650085449 4.568404197692871 20.6313362121582 4.568404197692871 17.13239669799805 C 4.568404197692871 13.63381576538086 2.604424238204956 10.70585632324219 4.171753062109929e-06 10.32170581817627 L 4.171753062109929e-06 3.999596118927002 C 4.171753062109929e-06 1.794206142425537 1.794214129447937 -3.822631697403267e-06 3.999604225158691 -3.822631697403267e-06 L 47.49752426147461 -3.822631697403267e-06 C 47.48397445678711 0.03885617852210999 47.4703254699707 0.08139617741107941 47.45790481567383 0.1277961730957031 C 47.33951568603516 0.5695861577987671 47.40036392211914 1.031166195869446 47.62924575805664 1.4275062084198 C 47.85809326171875 1.823836207389832 48.22746276855469 2.107306241989136 48.66930389404297 2.225696086883545 C 48.81485366821289 2.264526128768921 48.96444320678711 2.28420615196228 49.11389541625977 2.28420615196228 C 49.88754272460938 2.28420615196228 50.56778335571289 1.762006163597107 50.76810455322266 1.0143061876297 C 50.85824584960938 0.6779061555862427 50.84452438354492 0.3271761834621429 50.72844314575195 -3.822631697403267e-06 L 59.96160507202148 -3.822631697403267e-06 C 62.16699600219727 -3.822631697403267e-06 63.96120452880859 1.794206142425537 63.96120452880859 3.999596118927002 L 63.96120452880859 10.16599655151367 C 62.60136413574219 10.18753623962402 61.32583236694336 10.90967655181885 60.36857604980469 12.20039653778076 C 59.41084289550781 13.49178600311279 58.88340377807617 15.20306587219238 58.88340377807617 17.01899528503418 C 58.88340377807617 18.83487701416016 59.41084289550781 20.54600524902344 60.36857604980469 21.8371467590332 C 61.32552337646484 23.12721633911133 62.60140228271484 23.84955596923828 63.96120452880859 23.87108612060547 L 63.96120452880859 30.26519584655762 C 63.96120452880859 32.47058486938477 62.16699600219727 34.26480484008789 59.96160507202148 34.26480484008789 L 50.72845458984375 34.26480484008789 C 50.74202346801758 34.22592544555664 50.75567245483398 34.18339538574219 50.76810455322266 34.13700485229492 C 51.01256561279297 33.22473526000977 50.46913528442383 32.28361511230469 49.55670547485352 32.03910446166992 C 49.41096496582031 32.00007629394531 49.26129531860352 31.98030662536621 49.11186599731445 31.98030662536621 C 48.3382453918457 31.98030662536621 47.65811538696289 32.50262451171875 47.45790481567383 33.25049591064453 C 47.36775588989258 33.5869255065918 47.38146591186523 33.93764495849609 47.49754333496094 34.26480484008789 L 47.49802398681641 34.26613616943359 Z" stroke="none" fill="#0065a1"/>
          </g>
          <line id="Line_1" data-name="Line 1" y2="26.27" transform="translate(48.828 3.998)" fill="none" stroke="#0065a1" stroke-linecap="round" stroke-width="1" stroke-dasharray="3"/>
        </g>
        <g id="Group_96" data-name="Group 96" transform="translate(0 6.409)">
          <g id="Subtraction_1-2" data-name="Subtraction 1" transform="translate(0 0)" fill="#fff">
            <path d="M 46.59416961669922 33.58000946044922 L 3.999619483947754 33.57870483398438 C 2.207759380340576 33.57870483398438 0.749999463558197 32.12053680419922 0.749999463558197 30.32820701599121 L 0.749999463558197 24.7741813659668 C 2.272184371948242 24.69845199584961 3.683176517486572 23.88553237915039 4.74467945098877 22.46579551696777 C 5.811679363250732 21.0386962890625 6.399299621582031 19.15577697753906 6.399299621582031 17.16389656066895 C 6.399299621582031 15.17223644256592 5.81166934967041 13.28953647613525 4.744649410247803 11.86259651184082 C 3.683146476745605 10.44304180145264 2.27216625213623 9.630229949951172 0.749999463558197 9.554511070251465 L 0.749999463558197 3.999596118927002 C 0.749999463558197 2.207756280899048 2.207759380340576 0.7499961853027344 3.999599456787109 0.7499961853027344 L 46.59455108642578 0.7499961853027344 C 46.66889190673828 1.767493963241577 47.37400436401367 2.675145149230957 48.41133117675781 2.954416275024414 C 48.62162780761719 3.010496139526367 48.83592987060547 3.0386962890625 49.04999923706055 3.0386962890625 C 50.16168975830078 3.0386962890625 51.13912963867188 2.286616086959839 51.42695999145508 1.209766149520874 C 51.46754837036133 1.057995676994324 51.49347686767578 0.9041998982429504 51.50480651855469 0.7499961853027344 L 59.87879943847656 0.7499961853027344 C 61.67063903808594 0.7499961853027344 63.12839889526367 2.207756280899048 63.12839889526367 3.999596118927002 L 63.12839889526367 9.617986679077148 C 61.81416702270508 9.846375465393066 60.61060333251953 10.63330936431885 59.68247985839844 11.88685607910156 C 58.62955856323242 13.30892658233643 58.04969787597656 15.18301582336426 58.04969787597656 17.16389656066895 C 58.04969787597656 19.14480590820312 58.62955093383789 21.01903533935547 59.68243789672852 22.44133567810059 C 60.610595703125 23.69513511657715 61.81417846679688 24.48223876953125 63.12839889526367 24.71068572998047 L 63.12839889526367 30.32820701599121 C 63.12839889526367 32.12053680419922 61.67063903808594 33.57870483398438 59.87879943847656 33.57870483398438 L 51.50450134277344 33.57870483398438 C 51.43026733398438 32.56005096435547 50.72440338134766 31.65231513977051 49.68603134155273 31.37405586242676 C 49.47779083251953 31.31799697875977 49.26274871826172 31.28945541381836 49.04771041870117 31.28945541381836 C 47.93695831298828 31.28945541381836 46.96009826660156 32.04134750366211 46.67216873168945 33.11791610717773 C 46.63140869140625 33.27046966552734 46.60543060302734 33.42508697509766 46.59416961669922 33.58000946044922 Z" stroke="none"/>
            <path d="M 45.97434234619141 32.82999038696289 C 46.38063812255859 31.47647285461426 47.63059997558594 30.53945541381836 49.04771041870117 30.53945541381836 C 49.32855987548828 30.53945541381836 49.60919952392578 30.5766658782959 49.88016128540039 30.64961624145508 C 50.99208068847656 30.94757843017578 51.81177520751953 31.79860305786133 52.12336349487305 32.82870483398438 L 59.87879943847656 32.82870483398438 C 61.257080078125 32.82870483398438 62.37839889526367 31.70698547363281 62.37839889526367 30.32820701599121 L 62.37839889526367 25.30472373962402 C 61.11942291259766 24.93166160583496 59.98012542724609 24.10400009155273 59.07962799072266 22.88756561279297 C 57.93182754516602 21.33704566955566 57.29969787597656 19.30433654785156 57.29969787597656 17.16389656066895 C 57.29969787597656 15.02345657348633 57.93185043334961 12.99087619781494 59.07970809936523 11.44056606292725 C 59.98017883300781 10.22437858581543 61.11943054199219 9.396892547607422 62.37839889526367 9.023916244506836 L 62.37839889526367 3.999596118927002 C 62.37839889526367 2.621316194534302 61.257080078125 1.499996185302734 59.87879943847656 1.499996185302734 L 52.12410736083984 1.499996185302734 C 51.71718215942383 2.852621555328369 50.46726989746094 3.7886962890625 49.04999923706055 3.7886962890625 C 48.77071762084961 3.7886962890625 48.49140930175781 3.751976251602173 48.21635055541992 3.678636074066162 C 47.10593795776367 3.379683256149292 46.28731155395508 2.528836727142334 45.97579193115234 1.499996185302734 L 3.999599456787109 1.499996185302734 C 2.621319532394409 1.499996185302734 1.499999403953552 2.621316194534302 1.499999403953552 3.999596118927002 L 1.499999403953552 8.891219139099121 C 2.963713407516479 9.167533874511719 4.327957630157471 10.05296325683594 5.34528923034668 11.41345596313477 C 6.50861930847168 12.96919631958008 7.149299621582031 15.01140594482422 7.149299621582031 17.16389656066895 C 7.149299621582031 19.31659698486328 6.508639335632324 21.35900688171387 5.345349311828613 22.91489601135254 C 4.328009128570557 24.27556037902832 2.963737964630127 25.16111183166504 1.499999403953552 25.43746566772461 L 1.499999403953552 30.32820701599121 C 1.499999403953552 31.70698547363281 2.621319532394409 32.82870483398438 3.999649524688721 32.82870483398438 L 45.97434234619141 32.82999038696289 M 47.43658065795898 34.33003616333008 L 3.999599456787109 34.32870483398438 C 1.794209480285645 34.32870483398438 -5.523681920749368e-07 32.53407669067383 -5.523681920749368e-07 30.32820701599121 L -5.523681920749368e-07 23.99574661254883 C 0.1679894477128983 24.01813697814941 0.3411094546318054 24.02999687194824 0.5156994462013245 24.02999687194824 C 3.346379518508911 24.02999687194824 5.649299621582031 20.94987678527832 5.649299621582031 17.16389656066895 C 5.649299621582031 13.37841606140137 3.346379518508911 10.29869651794434 0.5156994462013245 10.29869651794434 C 0.3437694609165192 10.29869651794434 0.1702594459056854 10.31021595001221 -5.523681920749368e-07 10.33293628692627 L -5.523681920749368e-07 3.999596118927002 C -5.523681920749368e-07 1.794206142425537 1.794209480285645 -3.825683506875066e-06 3.999599456787109 -3.825683506875066e-06 L 47.43626022338867 -3.825683506875066e-06 C 47.4227294921875 0.03884617611765862 47.40911102294922 0.08138617128133774 47.39669799804688 0.1277961730957031 C 47.15227890014648 1.041696190834045 47.69490051269531 1.984836220741272 48.60630035400391 2.230206251144409 C 48.75185012817383 2.269016265869141 48.90113830566406 2.2886962890625 49.04999923706055 2.2886962890625 C 49.82262802124023 2.2886962890625 50.50212097167969 1.76538622379303 50.70240020751953 1.016096115112305 C 50.79253768920898 0.6790461540222168 50.77894973754883 0.3276861608028412 50.66310119628906 -3.825683506875066e-06 L 59.87879943847656 -3.825683506875066e-06 C 62.08419036865234 -3.825683506875066e-06 63.87839889526367 1.794206142425537 63.87839889526367 3.999596118927002 L 63.87839889526367 10.29910659790039 C 62.51853942871094 10.31781578063965 61.24282073974609 11.03982639312744 60.28524017333984 12.33314609527588 C 59.32727813720703 13.62697601318359 58.79969787597656 15.34256649017334 58.79969787597656 17.16389656066895 C 58.79969787597656 18.98527526855469 59.32727813720703 20.70102691650391 60.28524017333984 21.99509620666504 C 61.24258804321289 23.28832626342773 62.51866912841797 24.01085662841797 63.87839889526367 24.02958679199219 L 63.87839889526367 30.32820701599121 C 63.87839889526367 32.53407669067383 62.08419036865234 34.32870483398438 59.87879943847656 34.32870483398438 L 50.66281890869141 34.32870483398438 C 50.67631912231445 34.28993606567383 50.68994903564453 34.24739456176758 50.70240020751953 34.20090484619141 C 50.94684982299805 33.28601455688477 50.4038200378418 32.34286499023438 49.49189758300781 32.09849548339844 C 49.34640121459961 32.059326171875 49.19694900512695 32.03945541381836 49.04771041870117 32.03945541381836 C 48.27595901489258 32.03945541381836 47.59703826904297 32.56262588500977 47.39669799804688 33.31169509887695 C 47.3065299987793 33.64919662475586 47.32015991210938 34.0008659362793 47.43610763549805 34.32870483398438 L 47.43658065795898 34.33003616333008 Z" stroke="none" fill="#0065a1"/>
          </g>
          <line id="Line_1-2" data-name="Line 1" y2="24.31" transform="translate(48.872 6.047)" fill="none" stroke="#0065a1" stroke-linecap="round" stroke-width="1" stroke-dasharray="3"/>
        </g>
      </g>
    </g>
  </g>
</svg>
