<svg id="qr-code_4_" data-name="qr-code (4)" xmlns="http://www.w3.org/2000/svg" width="165.949" height="165.949" viewBox="0 0 165.949 165.949">
  <path id="Path_34019" data-name="Path 34019" d="M20.8,0h6.638V19.912H20.8Z" transform="translate(32.304 0.001)"/>
  <path id="Path_34020" data-name="Path 34020" d="M26,0h6.638v6.64H26Z" transform="translate(40.38 0.001)"/>
  <path id="Path_34021" data-name="Path 34021" d="M31.2,0H57.751V26.55h6.638v6.638H37.838V26.55H51.113V13.274h-6.64V6.639H37.838v6.635H31.2Z" transform="translate(48.455 0.001)"/>
  <path id="Path_34022" data-name="Path 34022" d="M0,0V46.463H46.463V0H0ZM39.828,39.828H6.639V6.639H39.828Z" transform="translate(0.001 0.001)"/>
  <path id="Path_34023" data-name="Path 34023" d="M46.8,0V46.463H93.267V0H46.8ZM86.629,39.828H53.438V6.639H86.629Z" transform="translate(72.682 0.001)"/>
  <path id="Path_34024" data-name="Path 34024" d="M5.2,5.2H25.112V25.112H5.2Z" transform="translate(8.076 8.076)"/>
  <path id="Path_34025" data-name="Path 34025" d="M28.6,5.2h6.64v6.638H28.6Z" transform="translate(44.418 8.076)"/>
  <path id="Path_34026" data-name="Path 34026" d="M52,5.2H71.916V25.112H52Z" transform="translate(80.757 8.076)"/>
  <path id="Path_34027" data-name="Path 34027" d="M27.435,7.8H40.713v6.638H34.075v6.638h6.638V34.35h6.638V47.625H40.713V40.99H34.075V27.715h-6.64V40.99h6.64v6.635H20.8V21.074h6.635Z" transform="translate(32.304 12.114)"/>
  <path id="Path_34028" data-name="Path 34028" d="M31.2,15.6h6.638v6.638H31.2Z" transform="translate(48.455 24.229)"/>
  <path id="Path_34029" data-name="Path 34029" d="M36.4,15.6h6.64v6.638H36.4Z" transform="translate(56.529 24.229)"/>
  <path id="Path_34030" data-name="Path 34030" d="M41.6,15.6h6.64v6.638H41.6Z" transform="translate(64.606 24.229)"/>
  <path id="Path_34031" data-name="Path 34031" d="M5.2,20.8H25.112v6.635h6.64v6.64h-6.64v6.638H18.474V27.435H5.2Z" transform="translate(8.076 32.304)"/>
  <path id="Path_34032" data-name="Path 34032" d="M15.6,20.8h6.638v6.638H15.6Z" transform="translate(24.229 32.304)"/>
  <path id="Path_34033" data-name="Path 34033" d="M33.8,20.8h6.638v6.638H33.8Z" transform="translate(52.493 32.304)"/>
  <path id="Path_34034" data-name="Path 34034" d="M39,20.8h6.638V34.075H39Z" transform="translate(60.569 32.304)"/>
  <path id="Path_34035" data-name="Path 34035" d="M44.2,20.8H64.113V34.075H57.475v-6.64H44.2Z" transform="translate(68.644 32.304)"/>
  <path id="Path_34036" data-name="Path 34036" d="M61.238,20.8H81.154v6.635H67.878v6.64H81.154V53.989H61.238V47.351h6.64V40.713H54.6V34.075h6.638Z" transform="translate(84.795 32.304)"/>
  <path id="Path_34037" data-name="Path 34037" d="M34.35,23.4h6.64V36.677H54.266V23.4H60.9v6.64H80.814v6.638H60.9v6.638H47.625v6.638H14.437v6.635H7.8V36.677h6.638v6.638H34.35V36.677H27.715V30.039H34.35Z" transform="translate(12.114 36.341)"/>
  <path id="Path_34038" data-name="Path 34038" d="M5.2,26h6.638v6.638H5.2Z" transform="translate(8.076 40.38)"/>
  <path id="Path_34039" data-name="Path 34039" d="M41.6,26h6.64v6.638H41.6Z" transform="translate(64.606 40.38)"/>
  <path id="Path_34040" data-name="Path 34040" d="M0,28.6H13.274V41.875H6.639V68.426H0Z" transform="translate(0.001 44.418)"/>
  <path id="Path_34041" data-name="Path 34041" d="M36.4,28.6h6.64v6.64H36.4Z" transform="translate(56.529 44.418)"/>
  <path id="Path_34042" data-name="Path 34042" d="M31.2,31.2H44.473V44.473H37.838V37.838H31.2Z" transform="translate(48.455 48.455)"/>
  <path id="Path_34043" data-name="Path 34043" d="M41.6,31.2h6.64v6.638H41.6Z" transform="translate(64.606 48.455)"/>
  <path id="Path_34044" data-name="Path 34044" d="M54.6,33.8h6.64v6.638H54.6Z" transform="translate(84.795 52.493)"/>
  <path id="Path_34045" data-name="Path 34045" d="M5.2,36.4h6.638v6.64H25.112v6.638H18.474v6.638H11.837V49.677H5.2Z" transform="translate(8.076 56.529)"/>
  <path id="Path_34046" data-name="Path 34046" d="M15.6,36.4h6.638v6.64H15.6Z" transform="translate(24.229 56.529)"/>
  <path id="Path_34047" data-name="Path 34047" d="M57.2,36.4H77.116V56.315H70.478V43.039H57.2Z" transform="translate(88.833 56.529)"/>
  <path id="Path_34048" data-name="Path 34048" d="M119.205,65.826V52.551h-6.638V45.913H105.93V39.275h6.638v6.638h6.638V32.638H105.93V26H99.292v6.638H92.654v6.638h6.638V52.548h6.638V65.824H86.017V59.189H99.292v-6.64H86.017V45.911H79.379v6.638h-6.64V65.824H66.1v6.64H59.463V65.826H66.1V52.551H59.463v6.638H52.828v-6.64h6.638V45.911H39.55v6.638h6.64v6.64H26.274v6.638H13v6.638H32.915V65.826H52.828v6.638H32.915V79.1H46.19V85.74H39.55v6.638H32.912v19.916H39.55v-6.64h6.64V92.377h6.638V85.74h6.638V79.1H72.739V72.464h6.64V85.74h6.638V99.015H79.379V85.74H66.1v6.638H52.828v13.275h6.638V99.015H72.739v6.638H86.014v6.64h6.64v-6.64h6.638V99.015h13.275v6.638h13.275V99.015h-6.638V92.377h6.638V85.74h-6.638V79.1h6.638V72.464h6.64V65.826Zm-6.638,26.551H92.654V72.464h19.913Z" transform="translate(20.19 40.38)"/>
  <path id="Path_34049" data-name="Path 34049" d="M59.8,44.2h6.638v6.638h6.638v6.638H59.8Z" transform="translate(92.872 68.644)"/>
  <path id="Path_34050" data-name="Path 34050" d="M46.8,46.8h6.64v6.64H46.8Z" transform="translate(72.682 72.682)"/>
  <path id="Path_34051" data-name="Path 34051" d="M0,46.8V93.267H46.463V46.8ZM39.828,86.629H6.639V53.438H39.828Z" transform="translate(0.001 72.682)"/>
  <path id="Path_34052" data-name="Path 34052" d="M5.2,52H25.112V71.916H5.2Z" transform="translate(8.076 80.757)"/>
  <path id="Path_34053" data-name="Path 34053" d="M57.2,52h6.64v6.638H57.2Z" transform="translate(88.833 80.757)"/>
  <path id="Path_34054" data-name="Path 34054" d="M74.516,54.6h6.638V81.154H54.6V74.516H74.516Z" transform="translate(84.795 84.795)"/>
  <path id="Path_34055" data-name="Path 34055" d="M31.2,57.2H44.473v6.64H31.2Z" transform="translate(48.455 88.833)"/>
  <path id="Path_34056" data-name="Path 34056" d="M50.838,57.2H64.113v6.64h6.638v6.638H57.475v6.638H44.2V70.478h6.638Z" transform="translate(68.644 88.833)"/>
  <path id="Path_34057" data-name="Path 34057" d="M57.2,57.2h6.64v6.64H57.2Z" transform="translate(88.833 88.833)"/>
  <path id="Path_34058" data-name="Path 34058" d="M28.6,59.8h6.64v6.64H28.6Z" transform="translate(44.418 92.872)"/>
  <path id="Path_34059" data-name="Path 34059" d="M36.4,62.4H49.674v6.638H36.4Z" transform="translate(56.529 96.91)"/>
</svg>
