<svg id="Group_39609" data-name="Group 39609" xmlns="http://www.w3.org/2000/svg" width="14.745" height="15.792" viewBox="0 0 14.745 15.792">
  <path id="share_4_" data-name="share (4)" d="M11.971,10.623a2.86,2.86,0,0,0-2.051.847L5.356,8.834a2.413,2.413,0,0,0,0-1.874L9.921,4.323a2.86,2.86,0,0,0,2.051.847,2.687,2.687,0,0,0,2.773-2.585A2.687,2.687,0,0,0,11.971,0,2.687,2.687,0,0,0,9.2,2.585a2.42,2.42,0,0,0,.189.937L4.823,6.158a2.86,2.86,0,0,0-2.051-.847A2.687,2.687,0,0,0,0,7.9a2.687,2.687,0,0,0,2.773,2.585,2.86,2.86,0,0,0,2.051-.847L9.388,12.27a2.42,2.42,0,0,0-.189.937,2.687,2.687,0,0,0,2.773,2.585,2.687,2.687,0,0,0,2.773-2.585,2.687,2.687,0,0,0-2.773-2.585ZM10.21,2.585a1.766,1.766,0,0,1,3.524,0,1.766,1.766,0,0,1-3.524,0ZM2.772,9.539A1.707,1.707,0,0,1,1.011,7.9,1.707,1.707,0,0,1,2.772,6.254,1.707,1.707,0,0,1,4.534,7.9,1.707,1.707,0,0,1,2.772,9.539Zm7.437,3.669a1.766,1.766,0,1,1,1.762,1.642A1.707,1.707,0,0,1,10.21,13.208Zm0,0" transform="translate(0 -0.001)" fill="#0065a1"/>
</svg>
