<svg id="_x32_0_Success" xmlns="http://www.w3.org/2000/svg" width="108.317" height="104.155" viewBox="0 0 108.317 104.155">
  <g id="Group_39583" data-name="Group 39583">
    <path id="Path_34070" data-name="Path 34070" d="M110.091,77.181l-.032.016a11.6,11.6,0,0,0-4.065,12.484l.016.032A11.585,11.585,0,0,1,95.2,104.585h-.032a11.585,11.585,0,0,0-10.629,7.726v.016A11.582,11.582,0,0,1,67.042,118,11.573,11.573,0,0,0,53.9,118H53.88A11.569,11.569,0,0,1,36.4,112.31a11.591,11.591,0,0,0-10.629-7.726h-.032A11.585,11.585,0,0,1,14.928,89.713l.016-.032A11.606,11.606,0,0,0,10.879,77.2l-.032-.016a11.584,11.584,0,0,1,0-18.387l.032-.016a11.571,11.571,0,0,0,4.049-12.484v-.032A11.577,11.577,0,0,1,25.734,31.39h.032A11.6,11.6,0,0,0,36.4,23.664v-.016A11.564,11.564,0,0,1,53.88,17.97H53.9a11.588,11.588,0,0,0,13.146,0,11.571,11.571,0,0,1,17.5,5.677v.016A11.607,11.607,0,0,0,95.171,31.39H95.2A11.585,11.585,0,0,1,106.01,46.261l-.016.032a11.6,11.6,0,0,0,4.065,12.484l.032.016a11.585,11.585,0,0,1,0,18.388Z" transform="translate(-6.31 -15.906)" fill="#62a05c"/>
    <circle id="Ellipse_5" data-name="Ellipse 5" cx="30.045" cy="30.045" r="30.045" transform="translate(24.114 22.033)" fill="#8bd399"/>
    <path id="Path_34071" data-name="Path 34071" d="M170.612,128.31a30.053,30.053,0,0,0-42.3,42.3,30.035,30.035,0,1,1,42.3-42.3Z" transform="translate(-93.384 -95.465)" opacity="0.05"/>
    <path id="Path_34072" data-name="Path 34072" d="M194.551,212.833l-6.644-7.069a4.6,4.6,0,1,1,6.7-6.3l3.172,3.373,13.481-15.408a4.6,4.6,0,0,1,6.924,6.059l-16.822,19.225A4.6,4.6,0,0,1,194.551,212.833Z" transform="translate(-147.54 -148.993)" fill="#fff"/>
  </g>
</svg>
